<?xml version="1.0" standalone="no"?>
<!DOCTYPE svg PUBLIC "-//W3C//DTD SVG 20010904//EN"
 "http://www.w3.org/TR/2001/REC-SVG-20010904/DTD/svg10.dtd">
<svg version="1.0" xmlns="http://www.w3.org/2000/svg"
 width="268.000000pt" height="268.000000pt" viewBox="0 0 268.000000 268.000000"
 preserveAspectRatio="xMidYMid meet">
<metadata>
Created by potrace 1.11, written by Peter Selinger 2001-2013
</metadata>
<g transform="translate(0.000000,268.000000) scale(0.100000,-0.100000)"
fill="#000000" stroke="none">
<path d="M800 2483 c-36 -13 -76 -65 -120 -158 -26 -55 -61 -117 -79 -139 -17
-21 -31 -42 -32 -45 0 -3 -2 -40 -3 -81 -3 -101 -57 -235 -126 -314 l-49 -56
1 -72 c1 -56 -6 -90 -27 -148 -35 -94 -71 -167 -101 -203 -19 -22 -24 -40 -24
-83 0 -87 -64 -253 -139 -363 -37 -54 -39 -61 -38 -132 0 -41 -6 -98 -13 -128
-35 -146 46 -313 199 -410 99 -63 79 -62 937 -59 774 3 779 3 826 25 62 28
134 96 163 153 36 72 465 1499 465 1548 0 75 -41 146 -102 178 -28 14 -28 14
-28 -15 0 -16 -108 -386 -241 -823 -260 -855 -253 -837 -329 -859 -23 -7 -299
-9 -815 -7 l-780 3 -43 23 c-72 39 -110 136 -63 162 13 7 263 10 740 10 486 0
737 4 771 11 67 14 112 54 149 134 48 102 492 1580 493 1642 1 93 -54 173
-142 202 -26 9 -222 11 -735 10 -385 -1 -707 -4 -715 -6z m1218 -417 c7 -34
-30 -136 -56 -157 -24 -18 -43 -19 -521 -17 -567 3 -518 -7 -485 100 32 105
-9 99 563 96 480 -3 496 -4 499 -22z m-130 -400 c7 -34 -30 -136 -56 -157 -24
-18 -43 -19 -521 -17 -567 3 -518 -7 -485 100 32 105 -9 99 563 96 480 -3 496
-4 499 -22z"/>
</g>
</svg>
